# xmcd
#
# Track frame offsets: 
#        150
#        19680
#        39410
#        51514
#        65547
#        85797
#        98256
#        113271
#        123149
#        135442
#        153279
#        170885
#
# Disc length: 2532 seconds
#
# Revision: 1
# Processed by: cddbd v1.5.2PL0 Copyright (c) Steve Scherf et al.
# Submitted via: ExactAudioCopy v0.99pb4
#
DISCID=8909e20c
DTITLE=Eleni Mandell - Country for True Lovers
DYEAR=2003
DGENRE=Country
TTITLE0=Another Lonely Heart
TTITLE1=Don't Say You Care
TTITLE2=We Got a Tender Heart
TTITLE3=It's Raining
TTITLE4=Kingsport Town
TTITLE5=Tell Me Twice
TTITLE6=Refrain
TTITLE7=Iowa City
TTITLE8=You're All Bad (And That's Why You're All Invited!)
TTITLE9=Don't Touch Me
TTITLE10=Home
TTITLE11=Blue Ribbon Eyes
EXTD=YEAR: 2003 ID3G: 2
EXTT0=
EXTT1=
EXTT2=
EXTT3=
EXTT4=
EXTT5=
EXTT6=
EXTT7=
EXTT8=
EXTT9=
EXTT10=
EXTT11=
PLAYORDER=
